<?xml version="1.0" encoding="utf-8"?><svg version="1.1" id="Layer_1" xmlns="http://www.w3.org/2000/svg" xmlns:xlink="http://www.w3.org/1999/xlink" x="0px" y="0px" viewBox="0 0 122.88 118.78" style="enable-background:new 0 0 122.88 118.78" xml:space="preserve"><g><path d="M85.41,33.6h28.34h4.57c0.06,0,0.13-0.01,0.21-0.04L100.89,5.47c-0.13-0.2-0.29-0.49-0.44-0.77l0,0l-0.05-0.11 c-0.09-0.18-0.14-0.37-0.17-0.56l-77.56,0c-0.14,0-0.04,0.32-0.23,0.67c-0.14,0.25-0.28,0.51-0.44,0.77L4.35,33.56 c0.08,0.03,0.15,0.04,0.21,0.04h4.57h28.34c0.48-5.84,3.05-11.08,6.96-14.99c4.35-4.35,10.37-7.05,17.01-7.05 c6.64,0,12.66,2.69,17.01,7.05C82.36,22.51,84.92,27.76,85.41,33.6L85.41,33.6z M53.71,96.07c0.89,0,1.61,0.72,1.61,1.61 c0,0.89-0.72,1.61-1.61,1.61c-0.89,0-1.61-0.72-1.61-1.61C52.1,96.79,52.82,96.07,53.71,96.07L53.71,96.07z M59.18,23.54h4.52 c0.85,0,1.54,0.69,1.54,1.54v6.74h6.74c0.85,0,1.54,0.69,1.54,1.54v4.52c0,0.85-0.69,1.54-1.54,1.54h-6.74v6.74 c0,0.85-0.69,1.54-1.54,1.54h-4.52c-0.85,0-1.54-0.69-1.54-1.54v-6.74H50.9c-0.85,0-1.54-0.69-1.54-1.54v-4.52 c0-0.85,0.69-1.54,1.54-1.54h6.74v-6.74C57.64,24.23,58.33,23.54,59.18,23.54L59.18,23.54z M37.47,37.63H11.15v77.11h33.99V84.23 c0-2.45,1-4.68,2.61-6.29c1.61-1.61,3.84-2.61,6.29-2.61h14.8c2.45,0,4.68,1,6.29,2.61c1.61,1.61,2.61,3.84,2.61,6.29v30.51h33.99 V37.63H85.41c-0.48,5.84-3.05,11.08-6.96,14.99c-4.35,4.35-10.37,7.05-17.01,7.05c-6.64,0-12.66-2.69-17.01-7.05 C40.52,48.72,37.96,43.47,37.47,37.63L37.47,37.63z M75.59,21.46c-3.62-3.62-8.63-5.86-14.15-5.86c-5.53,0-10.53,2.24-14.15,5.86 c-3.62,3.62-5.86,8.63-5.86,14.15s2.24,10.53,5.86,14.15c3.62,3.62,8.63,5.86,14.15,5.86c5.53,0,10.53-2.24,14.15-5.86 c3.62-3.62,5.86-8.63,5.86-14.15S79.22,25.08,75.59,21.46L75.59,21.46z M49.18,114.75h24.53V84.23c0-1.34-0.55-2.55-1.43-3.43 c-0.88-0.88-2.1-1.43-3.43-1.43h-14.8c-1.34,0-2.55,0.55-3.43,1.43c-0.88,0.88-1.43,2.1-1.43,3.43V114.75L49.18,114.75z M88.21,79.74h14.83c1.11,0,2.02,0.9,2.02,2.02v17.13c0,1.11-0.9,2.02-2.02,2.02H88.21c-1.11,0-2.02-0.9-2.02-2.02V81.76 C86.19,80.65,87.09,79.74,88.21,79.74L88.21,79.74z M101.01,83.78H90.23v13.1h10.79V83.78L101.01,83.78z M88.21,48.8h14.83 c1.11,0,2.02,0.9,2.02,2.02v17.13c0,1.11-0.9,2.02-2.02,2.02H88.21c-1.11,0-2.02-0.9-2.02-2.02V50.82 C86.19,49.71,87.09,48.8,88.21,48.8L88.21,48.8z M101.01,52.84H90.23v13.1h10.79V52.84L101.01,52.84z M19.85,79.74h14.83 c1.11,0,2.02,0.9,2.02,2.02v17.13c0,1.11-0.9,2.02-2.02,2.02H19.85c-1.11,0-2.02-0.9-2.02-2.02V81.76 C17.83,80.65,18.73,79.74,19.85,79.74L19.85,79.74z M32.66,83.78H21.87v13.1h10.79V83.78L32.66,83.78z M19.85,48.8h14.83 c1.11,0,2.02,0.9,2.02,2.02v17.13c0,1.11-0.9,2.02-2.02,2.02H19.85c-1.11,0-2.02-0.9-2.02-2.02V50.82 C17.83,49.71,18.73,48.8,19.85,48.8L19.85,48.8z M32.66,52.84H21.87v13.1h10.79V52.84L32.66,52.84z M7.11,37.63H4.56 c-0.88,0-1.85-0.31-2.63-0.8c-0.48-0.3-0.91-0.68-1.24-1.12C0.26,35.13,0,34.47,0,33.76c0-0.54,0.15-1.08,0.47-1.6L18.58,3.33 c0.12-0.19,0.23-0.39,0.33-0.58C19.71,1.31,20.44,0,22.66,0h77.55c2.23,0,2.95,1.31,3.75,2.75v0.01c0.09,0.16,0.18,0.33,0.34,0.57 l18.11,28.84c0.33,0.52,0.47,1.06,0.47,1.6c0,0.71-0.26,1.37-0.69,1.95c-0.29,0.39-0.67,0.74-1.1,1.03l-0.14,0.09 c-0.78,0.49-1.75,0.8-2.63,0.8h-2.56v79.13c0,1.11-0.9,2.02-2.02,2.02H75.72H47.16H9.13c-1.11,0-2.02-0.9-2.02-2.02V37.63 L7.11,37.63z"/></g></svg>